<svg xmlns="http://www.w3.org/2000/svg" viewBox="0 0 40 40">
	<title>Pinterest</title>
	<path fill="#FFF" d="M23 29c-2.5 0-4.8-1.2-5.5-2.8 0 0-1.2 5.2-1.5 6.2-1 3.5-4 7.2-4.2 7.5-.2 0-.5 0-.5-.2 0-.5-.8-5 0-8.8.5-1.8 3-12.5 3-12.5s-.8-1.5-.8-3.8c0-3.5 2-6 4.5-6 2 0 3 1.5 3 3.5s-1.2 5.2-2 8.2c-.8 2.7 1.2 4.7 3.5 4.7 4.2 0 7.2-5.5 7.2-12.2 0-5-3.5-8.8-9.5-8.8C13.2 4 9 9 9 15c0 2 .5 3.5 1.5 4.5.5.5.5.8.2 1.2 0 .5-.2 1.5-.5 1.8 0 .8-.5.8-1 .8-3.2-1.5-4.8-5-4.8-9C4.5 7.8 10 0 21 0c8.8 0 14.5 6.2 14.5 13.2 0 9-5 15.8-12.5 15.8z"/>
</svg>