<svg width="32" height="32" viewBox="0 0 32 32" fill="none" xmlns="http://www.w3.org/2000/svg">
	<path d="M16 30C23.732 30 30 23.732 30 16C30 8.26801 23.732 2 16 2C8.26801 2 2 8.26801 2 16C2 23.732 8.26801 30 16 30Z" fill="url(#paint0_linear_2755_563)"/>
	<path d="M16 10.62C17.85 10.62 18.06 10.62 18.8 10.62C19.2407 10.6238 19.6774 10.705 20.09 10.86C20.3929 10.9803 20.6684 11.1606 20.9 11.39C21.1313 11.6141 21.3091 11.8876 21.42 12.19C21.5827 12.6042 21.6675 13.0449 21.67 13.49C21.67 14.22 21.67 14.43 21.67 16.29C21.67 18.15 21.67 18.35 21.67 19.09C21.6643 19.5315 21.5796 19.9683 21.42 20.38C21.2996 20.6805 21.1232 20.9554 20.9 21.19C20.6705 21.4195 20.3942 21.5968 20.09 21.71C19.6797 21.8742 19.2419 21.9591 18.8 21.96C18.06 21.96 17.85 21.96 16 21.96C14.15 21.96 13.93 21.96 13.2 21.96C12.7553 21.954 12.3152 21.8693 11.9 21.71C11.6025 21.5894 11.331 21.4129 11.1 21.19C10.8808 20.9247 10.7236 20.6138 10.64 20.28C10.4852 19.8777 10.4039 19.451 10.4 19.02C10.4 18.28 10.4 18.07 10.4 16.22C10.4 14.37 10.4 14.15 10.4 13.42C10.4042 12.976 10.4854 12.5362 10.64 12.12C10.7485 11.8323 10.9153 11.5701 11.13 11.35C11.3581 11.1257 11.6355 10.9579 11.94 10.86C12.3416 10.7031 12.7688 10.6217 13.2 10.62C13.93 10.62 14.14 10.62 16 10.62ZM16 9.35999C14.14 9.35999 13.9 9.35999 13.16 9.35999C12.5836 9.37586 12.0147 9.49439 11.48 9.70999C11.0182 9.87239 10.5987 10.1364 10.2526 10.4826C9.90641 10.8287 9.64239 11.2482 9.47999 11.71C9.27763 12.2475 9.16938 12.8158 9.15999 13.39C9.08325 14.3346 9.05988 15.2828 9.08999 16.23C9.08999 18.08 9.08999 18.33 9.08999 19.06C9.09774 19.6335 9.20256 20.2015 9.39999 20.74C9.58813 21.2194 9.88211 21.6501 10.26 22C10.6029 22.353 11.0195 22.6262 11.48 22.8C12.0175 23.0023 12.5858 23.1106 13.16 23.12C13.9 23.12 14.16 23.12 16 23.12C17.84 23.12 18.1 23.12 18.83 23.12C19.4041 23.1096 19.9723 23.0014 20.51 22.8C20.9629 22.622 21.3743 22.3525 21.7184 22.0084C22.0625 21.6643 22.332 21.2529 22.51 20.8C22.7143 20.2631 22.8226 19.6944 22.83 19.12C22.83 18.39 22.83 18.12 22.83 16.29C22.83 14.46 22.83 14.19 22.83 13.45C22.8175 12.8761 22.7094 12.3083 22.51 11.77C22.3362 11.3095 22.063 10.8929 21.71 10.55C21.3637 10.1939 20.9439 9.91745 20.48 9.73999C19.9423 9.53967 19.3738 9.43477 18.8 9.42999C18.1 9.35999 17.85 9.35999 16 9.35999Z" fill="white"/>
	<path d="M16 12.72C15.2994 12.718 14.614 12.9239 14.0305 13.3117C13.4471 13.6995 12.9918 14.2517 12.7223 14.8983C12.4528 15.545 12.3813 16.2571 12.5168 16.9445C12.6522 17.6318 12.9886 18.2635 13.4833 18.7596C13.9779 19.2557 14.6087 19.5938 15.2956 19.7312C15.9826 19.8686 16.6949 19.7991 17.3423 19.5315C17.9898 19.2638 18.5432 18.8101 18.9327 18.2277C19.3221 17.6454 19.53 16.9606 19.53 16.26C19.5313 15.7956 19.4409 15.3355 19.2641 14.906C19.0873 14.4766 18.8275 14.0863 18.4996 13.7574C18.1717 13.4286 17.7821 13.1677 17.3531 12.9896C16.9242 12.8116 16.4644 12.72 16 12.72ZM16 18.57C15.396 18.5569 14.8212 18.3078 14.3988 17.876C13.9763 17.4442 13.7398 16.8641 13.74 16.26C13.74 15.6473 13.9833 15.0598 14.4165 14.6266C14.8497 14.1934 15.4373 13.95 16.05 13.95C16.6626 13.95 17.2502 14.1934 17.6834 14.6266C18.1166 15.0598 18.36 15.6473 18.36 16.26C18.36 16.5676 18.2987 16.8721 18.1795 17.1557C18.0603 17.4393 17.8856 17.6962 17.6658 17.9113C17.446 18.1265 17.1854 18.2956 16.8993 18.4087C16.6133 18.5218 16.3075 18.5766 16 18.57Z" fill="white"/>
	<path d="M19.67 13.42C19.8927 13.42 20.1064 13.3315 20.2639 13.174C20.4215 13.0164 20.51 12.8028 20.51 12.58C20.51 12.3572 20.4215 12.1436 20.2639 11.986C20.1064 11.8285 19.8927 11.74 19.67 11.74C19.4472 11.74 19.2335 11.8285 19.076 11.986C18.9185 12.1436 18.83 12.3572 18.83 12.58C18.83 12.8028 18.9185 13.0164 19.076 13.174C19.2335 13.3315 19.4472 13.42 19.67 13.42Z" fill="white"/>
	<defs>
		<linearGradient id="paint0_linear_2755_563" x1="3.87001" y1="23" x2="28.13" y2="9" gradientUnits="userSpaceOnUse">
			<stop stop-color="#F6CA52"/>
			<stop offset="0.29" stop-color="#F06E48"/>
			<stop offset="0.36" stop-color="#F05044"/>
			<stop offset="0.6" stop-color="#D53C89"/>
			<stop offset="1" stop-color="#4864AE"/>
		</linearGradient>
	</defs>
</svg>
