<svg viewBox="0 0 48 48" fill="none" xmlns="http://www.w3.org/2000/svg" xmlns:anim="http://www.w3.org/2000/anim" anim="" anim:transform-origin="50% 50%" anim:duration="0.6" anim:ease="linear">
  <g id="Property 1=Frame 98">
    <rect width="48" height="48"></rect>
    <g id="Page Spinner">
      <path id="Track" d="M44 24C44 26.6264 43.4827 29.2272 42.4776 31.6537C41.4725 34.0802 39.9993 36.285 38.1421 38.1421C36.285 39.9993 34.0802 41.4725 31.6537 42.4776C29.2272 43.4827 26.6264 44 24 44C21.3736 44 18.7728 43.4827 16.3463 42.4776C13.9198 41.4725 11.715 39.9993 9.85786 38.1421C8.00069 36.285 6.5275 34.0802 5.52241 31.6537C4.51731 29.2272 4 26.6264 4 24C4 21.3736 4.51732 18.7728 5.52241 16.3463C6.5275 13.9198 8.00069 11.715 9.85787 9.85786C11.715 8.00069 13.9198 6.5275 16.3463 5.52241C18.7728 4.51731 21.3736 4 24 4C26.6264 4 29.2272 4.51732 31.6537 5.52241C34.0802 6.5275 36.285 8.00069 38.1421 9.85787C39.9993 11.715 41.4725 13.9198 42.4776 16.3463C43.4827 18.7728 44 21.3736 44 24L44 24Z" stroke="#EEF6FC" stroke-width="8" stroke-linecap="round"></path>
      <path id="Spin" d="M44 24C44 27.1562 43.253 30.2676 41.8201 33.0798C40.3872 35.892 38.3091 38.3252 35.7557 40.1803C33.2023 42.0355 30.246 43.26 27.1287 43.7538C24.0113 44.2475 20.8214 43.9965 17.8197 43.0211C14.8179 42.0458 12.0896 40.3739 9.85786 38.1421C7.62609 35.9104 5.95419 33.1821 4.97887 30.1803C4.00355 27.1786 3.75249 23.9887 4.24623 20.8713C4.73997 17.754 5.96449 14.7977 7.81966 12.2443" stroke="#005699" stroke-width="8" stroke-linecap="round"></path>
    </g>
  </g>
</svg>