<svg id="base" xmlns="http://www.w3.org/2000/svg" width="20.35" height="29.31" viewBox="0 0 20.35 29.31"><title>Top Offers</title><path d="M19.4,8.47V8.42l-.86-.5c1.2-2.29,1.45-4.86.58-6.46A2.66,2.66,0,0,0,17,0a3.3,3.3,0,0,0-2.87,1.12,7,7,0,0,0-1.27,4.49L8.92,7.17h0L0,22.63l0,0,.06.21,11.19,6.41,0,0,.21-.06,8.83-15.42,0,0Zm-6,2.31v.08a.6.6,0,0,0,.59.46h.13a.6.6,0,0,0,.45-.72.29.29,0,0,0,0-.09,1,1,0,0,1-.41,1.91,1,1,0,0,1-1-1A1,1,0,0,1,13.44,10.78Zm-.27-1.31a2.19,2.19,0,1,0,1.18-.25,20.35,20.35,0,0,1-.26-2L18,9.43l.72,4.08L10.82,27.17l-8.68-5L10,8.46l2.87-1.15C13,8.07,13.05,8.8,13.17,9.47ZM15,1.91a2.1,2.1,0,0,1,1.87-.7,1.46,1.46,0,0,1,1.2.82c.66,1.23.42,3.38-.57,5.29L14,5.31A5.66,5.66,0,0,1,15,1.91Z" fill="#005699"/></svg>